<?xml version="1.0" standalone="no"?>
<!DOCTYPE svg PUBLIC "-//W3C//DTD SVG 1.1//EN" "http://www.w3.org/Graphics/SVG/1.1/DTD/svg11.dtd">
<svg xmlns="http://www.w3.org/2000/svg" width="163" height="48" viewBox="0 0 163 48" fill="none">
<g clip-path="url(#clip0_39_2956)">
<path d="M150.948 26.5785C151.738 26.5454 152.561 26.5785 153.352 26.5785C153.648 26.5785 153.78 26.4793 153.78 26.1488V20.3636C153.944 20.562 154.01 20.6281 154.109 20.7273C155.624 22.5454 157.106 24.3636 158.62 26.2149C158.818 26.4793 159.114 26.6116 159.444 26.5785H162.44C162.638 26.5785 162.901 26.7107 163 26.4793C163.099 26.2479 162.835 26.1157 162.736 25.9835C160.925 23.8678 159.081 21.719 157.237 19.6364C156.908 19.2727 156.908 19.0744 157.237 18.7107C158.851 17.0248 160.464 15.2727 162.045 13.5537C162.144 13.4545 162.374 13.3884 162.275 13.157C162.177 12.9256 161.946 13.0248 161.781 13.0248C160.958 13.0248 160.135 13.0578 159.312 13.0248C159.015 12.9917 158.719 13.124 158.521 13.3884C157.797 14.2479 157.04 15.0744 156.315 15.9339L153.747 18.843L153.813 18.0165V7.66942C153.813 7.20661 153.714 7.00826 153.187 7.04132C152.495 7.07437 151.837 7.07437 151.145 7.04132C150.618 7.00826 150.421 7.14049 150.421 7.73553V26.0165C150.421 26.4132 150.487 26.5785 150.948 26.5785Z" fill="white"/>
<path d="M122.135 25.8512C122.135 25.157 122.102 24.4959 122.135 23.8347C122.135 23.405 122.003 23.3719 121.641 23.5041C120.587 23.8017 119.501 23.9339 118.447 23.9008C115.384 23.8017 113.178 22.1818 112.454 19.5041C112.223 18.5455 112.157 17.5537 112.289 16.562C112.454 14.1488 114.133 12.1322 116.438 11.5041C118.183 11.0413 120.027 11.1074 121.707 11.7025C122.234 11.9008 122.3 11.7355 122.3 11.2727C122.267 10.6446 122.267 10.0165 122.3 9.38843C122.332 8.85951 122.102 8.69422 121.674 8.56199C120.851 8.36364 119.994 8.26447 119.138 8.29752C112.651 8.23141 108.634 12.1322 108.864 18.1157C108.963 20.7934 109.786 23.2066 111.993 24.8926C114.956 27.1736 118.315 27.2066 121.806 26.4463C122.036 26.3802 122.135 26.1488 122.135 25.8512Z" fill="white"/>
<path d="M91.6094 26.6116C92.1033 26.6446 92.3009 26.4793 92.268 25.9835V23.4049C92.235 21.2562 92.3997 19.1074 92.1692 16.9587C91.8728 14.0496 89.6007 12.3967 86.7358 12.8925C85.6492 13.0909 84.6284 13.5868 83.7722 14.281C83.7063 14.1487 83.6734 13.9835 83.6405 13.8182C83.6405 13.2231 83.3441 13.0248 82.7514 13.0909C82.1587 13.1239 81.5659 13.1239 80.9403 13.0909C80.611 13.0909 80.5122 13.1901 80.5122 13.5537C80.5781 14.2479 80.611 14.9421 80.5781 15.6694V25.9835C80.5781 26.4793 80.7098 26.6777 81.2037 26.6446C81.8952 26.6116 82.5538 26.6116 83.2453 26.6446C83.7722 26.6777 83.9368 26.5124 83.9368 25.9835C83.9039 23.2397 83.9698 20.5289 83.9039 17.7851C83.8051 17.0248 84.2991 16.2975 85.0564 16.0661C85.3199 15.9339 85.5833 15.8678 85.8468 15.8016C87.6579 15.438 88.8104 16.3636 88.9092 18.2149V26.0165C88.9092 26.5124 89.0738 26.6446 89.5678 26.6446C90.2263 26.5785 90.9179 26.5785 91.6094 26.6116Z" fill="white"/>
<path d="M147.26 12.9917C146.338 12.8264 145.383 12.7933 144.428 12.8594C143.967 12.8594 143.539 12.9256 143.078 13.0247C139.291 13.8842 136.92 17.6528 137.776 21.4545C138.501 24.9256 141.102 26.909 145.054 26.876C145.877 26.909 146.667 26.7768 147.424 26.5454C147.688 26.5123 147.853 26.2479 147.82 25.9834C147.787 25.3553 147.787 24.7272 147.82 24.0991C147.82 23.7024 147.754 23.5702 147.326 23.7024C146.601 23.9008 145.877 23.9669 145.119 23.9008C142.65 23.8346 141.168 22.4132 141.003 19.9999C140.872 17.8842 141.991 16.2644 144 15.8016C145.086 15.5371 146.239 15.6032 147.326 15.9338C147.688 16.033 147.82 15.9999 147.82 15.5702C147.787 14.9421 147.787 14.314 147.82 13.7189C147.918 13.2231 147.655 13.0908 147.26 12.9917Z" fill="white"/>
<path d="M129.61 24.529C129.61 24.1653 129.478 24.1653 129.181 24.1653C128.259 24.1653 128.062 23.9339 128.029 23.0414V7.73558C128.029 7.20665 127.897 7.0083 127.337 7.04136C126.712 7.07442 126.053 7.07442 125.428 7.04136C124.868 7.0083 124.67 7.17359 124.67 7.76863V15.6033C124.67 17.3224 124.67 19.0744 124.703 20.7934C124.637 21.9835 124.67 23.1736 124.802 24.3637C124.934 25.3223 125.329 26.1488 126.284 26.5455C127.239 26.9091 128.259 26.9422 129.247 26.6777H129.28C129.511 26.6447 129.675 26.4133 129.643 26.1819C129.61 25.6529 129.577 25.0909 129.61 24.529Z" fill="white"/>
<path d="M132.343 26.6446C133.133 26.6115 133.858 26.6446 134.615 26.6446C135.01 26.6446 135.076 26.5123 135.076 26.1487V13.5867C135.076 13.157 134.944 13.0908 134.582 13.0908C133.858 13.1239 133.1 13.1239 132.376 13.0908C131.915 13.0578 131.75 13.19 131.75 13.6859V19.7685C131.75 21.8512 131.75 23.9008 131.717 25.9834C131.717 26.4793 131.849 26.6446 132.343 26.6446Z" fill="white"/>
<path d="M76.5276 31.9009C75.9349 31.8347 75.3751 31.8678 74.7824 32C73.2018 32.2976 72.0822 33.686 72.0822 35.3058C72.0493 37.0909 72.9383 38.4132 74.519 38.843C75.1775 38.9752 75.869 39.0083 76.5276 38.9422C77.2192 38.8761 77.2192 38.4794 77.1533 37.9835C77.0874 37.4215 76.6923 37.8843 76.4618 37.8182C76.2971 37.8182 76.1325 37.8182 76.0008 37.8513C74.3872 37.9174 73.3335 36.8595 73.3664 35.3389C73.3994 33.8182 74.519 32.8595 76.0996 33.0248C76.4618 33.0579 76.7911 33.124 77.1862 33.1901C77.1862 33.0579 77.2192 32.8926 77.2521 32.7604C77.3838 32.1653 77.1204 31.9339 76.5276 31.9009Z" fill="white"/>
<path d="M99.1173 36.2975C99.1503 35.6033 99.0844 34.9091 99.1503 34.2479C99.1832 33.719 98.9856 33.6859 98.5246 33.6859C98.0636 33.6859 97.8331 33.719 97.866 34.281C97.899 35.2066 97.8331 36.1322 97.866 37.0578C97.866 37.0578 97.866 37.0578 97.866 37.0909C97.899 37.4545 97.6355 37.7851 97.2733 37.8181C97.1087 37.8843 96.944 37.9173 96.7794 37.9173C96.2854 37.8512 95.9561 37.4215 95.9891 36.9256V34.0826C95.9891 33.6529 95.7586 33.6529 95.4951 33.719C95.2317 33.7851 94.7707 33.4545 94.7707 34.0495C94.7707 35.2066 94.7378 36.3305 94.8036 37.4876C94.8036 38.1818 95.2646 38.7768 95.9561 38.9421C96.5159 39.1074 97.1416 39.0082 97.6355 38.7107C97.8002 38.6115 97.866 38.5454 98.0307 38.7768C98.2612 39.1074 98.7222 38.9421 99.0186 38.876C99.2491 38.8429 99.0844 38.5124 99.0844 38.3471V36.2975H99.1173Z" fill="white"/>
<path d="M128.161 33.686C127.667 33.5207 127.14 33.719 126.91 34.1819C126.613 35.1736 126.284 36.1984 125.922 37.2893C125.625 36.3967 125.362 35.5703 125.066 34.7769C124.67 33.6199 124.67 33.6199 123.32 33.719C123.65 34.7438 124.045 35.7356 124.506 36.6943C125.23 38.0166 125.296 39.2728 124.407 40.529C124.374 40.562 124.374 40.5951 124.341 40.6281C124.176 40.8595 124.275 40.9257 124.539 40.9257C125.164 40.9257 125.691 40.8265 125.856 40.0662C126.021 39.5372 126.218 39.0414 126.449 38.5455C127.041 37.0909 127.601 35.6033 128.095 34.0827C128.194 34.0166 128.359 33.8182 128.161 33.686Z" fill="white"/>
<path d="M115.483 33.6198C115.088 33.6198 114.693 33.7521 114.363 33.9835C114.199 34.0826 114.133 34.1488 114.001 33.8843C113.804 33.4876 113.31 33.719 113.013 33.719C112.717 33.719 112.849 34.0496 112.849 34.2149V36.4298H112.882C112.882 37.0579 112.915 37.7851 112.882 38.3471C112.849 38.9091 113.211 38.876 113.507 38.843C113.837 38.843 114.199 38.9752 114.166 38.3802C114.133 37.4215 114.199 36.4628 114.166 35.4711C114.133 35.1405 114.363 34.843 114.66 34.7438C115.45 34.4463 116.043 34.8099 116.076 35.6694C116.109 36.4959 116.109 37.3223 116.076 38.1488C116.043 38.7769 116.273 38.9422 116.8 38.843C116.965 38.8099 117.294 39.0083 117.294 38.5785C117.294 37.4215 117.327 36.2314 117.228 35.0744C117.195 34.0826 116.504 33.5868 115.483 33.6198Z" fill="white"/>
<path d="M86.8347 33.6199C86.4395 33.6199 86.0443 33.7521 85.7151 33.9504C85.5504 34.0496 85.4846 34.1488 85.3528 33.8513C85.1553 33.4546 84.6613 33.686 84.365 33.686C84.0686 33.686 84.2003 34.0166 84.2003 34.1819V36.4628L84.2332 36.4959C84.2332 37.0909 84.2991 37.7521 84.2332 38.3141C84.1674 38.8761 84.4967 38.9091 84.8589 38.8761C85.2211 38.843 85.5504 38.9422 85.5175 38.3471C85.4846 37.4215 85.5504 36.4628 85.5175 35.5042C85.4846 35.1405 85.7151 34.843 86.0773 34.7769C86.8676 34.5124 87.4274 34.8761 87.4274 35.7025V38.2149C87.4274 38.4133 87.2957 38.7438 87.5262 38.81C87.8555 38.8761 88.1848 38.8761 88.514 38.81C88.6128 38.81 88.6128 38.6777 88.6128 38.5455C88.6128 37.3885 88.6458 36.2314 88.547 35.0414C88.547 34.1157 87.8555 33.5868 86.8347 33.6199Z" fill="white"/>
<path d="M68.4601 31.9669C67.7357 32 66.9783 31.9669 66.221 31.9669H63.883C63.2244 31.9669 63.5207 32.5289 63.422 32.8264C63.2902 33.2231 63.6525 33.0909 63.85 33.0909C64.2123 33.124 64.5745 33.124 64.9367 33.0909C65.4306 33.0248 65.5953 33.2231 65.5624 33.719C65.5294 34.4463 65.5624 35.2066 65.5624 35.9339C65.5624 36.7603 65.5953 37.5868 65.5294 38.4132C65.4965 38.9091 65.8258 38.876 66.0892 38.843C66.3527 38.8099 66.7808 39.0413 66.7808 38.4463V34.876C66.7808 34.314 66.5502 33.6198 66.8795 33.2231C67.2088 32.8264 67.9333 33.157 68.4931 33.0909C68.6907 33.0578 69.0529 33.2231 68.9541 32.7934C68.8882 32.4628 69.1846 31.9339 68.4601 31.9669Z" fill="white"/>
<path d="M142.222 33.719C141.761 33.5537 141.234 33.7521 141.003 34.1818C140.641 35.2727 140.312 36.3967 139.917 37.6198C139.587 36.4628 139.225 35.4711 138.995 34.4793C138.863 33.8512 138.534 33.6529 137.941 33.719C137.513 33.719 137.414 33.8182 137.579 34.2149C138.04 35.5041 138.534 36.8265 138.896 38.1488C139.061 38.7769 139.39 39.0083 139.983 38.876C140.213 38.843 140.509 39.0083 140.641 38.6116C141.168 37.0909 141.728 35.5372 142.255 34.0165C142.288 33.9174 142.386 33.8182 142.222 33.719Z" fill="white"/>
<path d="M153.648 37.752C152.924 37.752 152.199 37.719 151.475 37.752C151.08 37.752 150.981 37.6529 150.981 37.2562C150.981 35.6363 150.948 34.0496 150.981 32.4297C150.981 31.8677 150.619 32 150.355 32C150.092 32 149.729 31.8347 149.729 32.3967C149.762 33.3884 149.729 34.4132 149.729 35.4049C149.729 36.3967 149.729 37.4215 149.762 38.4132C149.762 38.6115 149.697 38.8429 150.059 38.8429C151.277 38.8429 152.463 38.876 153.648 38.8429C154.241 38.8099 153.977 38.2479 154.076 37.9173C154.175 37.5867 153.813 37.752 153.648 37.752Z" fill="white"/>
<path d="M92.7617 36.1323C92.3995 35.9339 92.0043 35.8017 91.6091 35.6033C91.3786 35.4711 91.0164 35.405 91.1152 35.0083C91.1811 34.6116 91.5433 34.6116 91.8396 34.6116C92.3007 34.6116 92.7617 34.7108 93.1568 34.9091C93.2885 33.719 93.2227 33.6529 92.136 33.6199C91.8396 33.6199 91.5433 33.6199 91.2469 33.686C90.5883 33.7521 90.0615 34.281 89.9297 34.9091C89.798 35.5703 90.1603 36.2314 90.7859 36.4959C91.1481 36.6943 91.5104 36.8265 91.8726 36.9918C92.1031 37.091 92.3336 37.1901 92.2677 37.5207C92.2019 37.8513 91.9384 37.8843 91.675 37.9174C91.0823 37.9505 90.5225 37.8182 89.9956 37.5538C89.831 38.4794 89.8639 38.6777 90.292 38.81C90.9835 39.0414 91.7738 39.0414 92.4653 38.81C93.0251 38.6447 93.4203 38.1488 93.4532 37.5868C93.6178 36.9918 93.3215 36.3967 92.7617 36.1323Z" fill="white"/>
<path d="M133.43 11.2396C133.495 11.2396 133.561 11.2396 133.627 11.2396C134.615 11.1735 135.372 10.3471 135.339 9.35534V9.32229C135.339 8.29749 134.483 7.43799 133.462 7.43799C132.442 7.43799 131.585 8.29749 131.585 9.32229C131.585 9.42146 131.585 9.48758 131.585 9.58675C131.651 10.5454 132.475 11.3058 133.43 11.2396Z" fill="white"/>
<path d="M145.745 33.7189C145.152 33.8181 144.988 33.5867 145.053 33.0247C145.119 32.1652 145.053 32.1322 144.197 32.3305C143.703 32.4627 143.868 32.7603 143.868 33.0908C143.868 33.4214 143.901 33.785 143.374 33.7189C143.012 33.6859 143.078 33.9834 143.111 34.1817C143.144 34.3801 142.946 34.7768 143.341 34.7437C143.967 34.6776 143.901 35.1404 143.901 35.4379V36.3966L143.868 37.4875C143.901 38.7107 144.757 39.3057 145.91 38.876C146.305 38.7437 146.14 38.5123 146.173 38.1817C146.206 37.8512 145.975 37.9173 145.778 37.9173C145.284 37.9503 145.119 37.6859 145.119 37.2231C145.152 36.628 145.152 36.066 145.119 35.471C145.053 34.909 145.218 34.6445 145.811 34.7768C146.206 34.8429 146.239 34.5784 146.206 34.314C146.173 34.0495 146.338 33.6198 145.745 33.7189Z" fill="white"/>
<path d="M105.868 34.7769C106.296 34.843 106.23 34.5124 106.23 34.281C106.23 34.0165 106.362 33.6529 105.868 33.719C105.143 33.8513 105.044 33.4876 105.143 32.8926C105.143 32.7273 105.143 32.562 105.143 32.4298C105.143 32.2645 105.077 32.2314 104.913 32.2314C104.254 32.1653 103.925 32.3967 103.925 33.0579C103.892 33.4215 103.925 33.7521 103.365 33.719C102.97 33.686 103.135 34.0827 103.135 34.281C103.135 34.4794 103.036 34.8099 103.398 34.7438C103.892 34.6777 103.892 34.9752 103.892 35.3389V36.4298C103.892 36.7934 103.892 37.157 103.892 37.5207C103.859 37.7851 103.925 38.0496 104.057 38.3141C104.419 39.0083 105.275 39.2397 105.967 38.876C106.362 38.7108 106.164 38.4463 106.197 38.1488C106.23 37.8513 105.999 37.9174 105.835 37.9174C105.308 37.9504 105.143 37.686 105.143 37.1901C105.176 36.6612 105.176 36.0992 105.143 35.5703C105.077 34.9752 105.176 34.6446 105.868 34.7769Z" fill="white"/>
<path d="M157.171 34.7769C157.567 34.843 157.632 34.5455 157.599 34.281C157.567 34.0166 157.698 33.6199 157.204 33.686C156.612 33.7852 156.381 33.5538 156.513 33.0579C156.546 32.1323 156.546 32.1653 155.854 32.2645C155.327 32.2976 155.327 32.6281 155.294 32.9918C155.261 33.3554 155.393 33.7852 154.768 33.719C154.339 33.686 154.537 34.1157 154.504 34.3141C154.471 34.5124 154.438 34.81 154.8 34.7438C155.261 34.6777 155.261 34.9422 155.261 35.2728V37.4546C155.261 38.6777 156.085 39.2728 157.27 38.9091C157.665 38.7769 157.567 38.5124 157.567 38.248C157.599 37.9174 157.369 37.9504 157.138 37.9504C156.677 37.9835 156.513 37.7521 156.513 37.2893C156.513 36.6942 156.546 36.0662 156.513 35.4711C156.48 34.9752 156.579 34.6447 157.171 34.7769Z" fill="white"/>
<path d="M122.069 33.6529L121.674 33.6199C120.159 33.6199 119.138 34.248 118.71 35.3719C117.986 37.5207 119.665 39.3058 121.937 38.9091C122.629 38.81 122.464 38.3472 122.431 37.9835C122.398 37.5207 122.036 37.8182 121.838 37.8182C120.785 37.9174 120.06 37.4876 119.896 36.6612C119.632 35.3719 120.521 34.5124 121.937 34.7108C122.135 34.7438 122.464 34.9752 122.431 34.4794C122.431 34.1819 122.727 33.686 122.069 33.6529Z" fill="white"/>
<path d="M102.344 37.9835C101.883 37.9173 101.916 37.6529 101.916 37.3554V31.9008C101.916 31.4049 101.62 31.3719 101.323 31.4049C101.027 31.438 100.632 31.2727 100.632 31.8677C100.665 32.8595 100.632 33.8182 100.632 34.8099L100.665 34.843C100.665 35.8347 100.632 36.8595 100.665 37.8512C100.665 38.0165 100.698 38.1818 100.764 38.3471C100.994 38.9421 101.686 39.2066 102.278 38.9752C102.311 38.9752 102.311 38.9752 102.344 38.9752C102.509 38.9091 102.608 38.7438 102.542 38.5785C102.476 38.3471 102.673 38.0165 102.344 37.9835Z" fill="white"/>
<path d="M61.7096 31.967C61.4132 32.0001 61.0181 31.7687 61.0181 32.3968C61.051 34.4133 61.051 36.4298 61.0181 38.4463C61.0181 39.0744 61.3803 38.843 61.7096 38.8761C62.0389 38.9422 62.3023 38.9422 62.3023 38.4133C62.2694 37.4216 62.3023 36.4629 62.3023 35.4711C62.3023 34.4794 62.2694 33.4546 62.3023 32.4629C62.3352 31.9339 62.0059 31.9339 61.7096 31.967Z" fill="white"/>
<path d="M77.5815 14.7769C76.7253 11.1405 73.9263 8.59508 70.4688 8.33061C66.3855 8.03309 63.1914 9.91739 61.7425 13.5538C60.8534 15.7686 60.7217 18.248 61.3474 20.529C62.2035 23.7686 64.1793 25.9835 67.5381 26.6447C70.8968 27.3058 73.7946 26.5455 76.0009 23.7686C77.2522 22.0827 77.9108 20.0661 77.9108 17.9835C77.9437 16.8926 77.8449 15.8347 77.5815 14.7769ZM73.7617 21.2232C73.1031 22.7438 71.6542 23.8017 69.9748 23.9009C68.2296 24.0992 66.5173 23.3058 65.5623 21.8513C64.0476 19.6364 64.0146 15.6033 65.4635 13.3554C66.9124 11.1405 69.8431 10.5455 72.0494 12C72.6421 12.3967 73.136 12.8926 73.4983 13.4876C74.1898 14.7438 74.552 16.1653 74.4861 17.5868C74.552 18.843 74.2886 20.0992 73.7617 21.2232Z" fill="white"/>
<path d="M106.823 18.1157C106.592 15.9339 105.703 14.1819 103.596 13.2562C100.731 12.0331 97.4378 13.1571 95.8901 15.8678C94.573 18.1488 94.4412 20.8926 95.495 23.3058C96.1206 24.9257 97.4707 26.1157 99.1501 26.5455C101.159 27.1075 103.299 27.0083 105.242 26.281C105.67 26.1819 105.934 25.7852 105.868 25.3554C105.835 24.8595 105.835 24.3637 105.868 23.8347C105.868 23.4381 105.769 23.3389 105.407 23.5042C104.32 23.9339 103.168 24.1323 101.982 24.0662C99.8746 23.967 98.5245 22.9091 98.2281 21.0909C98.1622 20.7273 98.2281 20.5951 98.6233 20.5951H102.344V20.562H105.966C106.724 20.562 106.823 20.4628 106.856 19.7025C106.856 19.1405 106.856 18.6447 106.823 18.1157ZM103.332 18.248H98.1952C98.261 16.6281 99.6111 15.3719 101.192 15.4381C101.356 15.4381 101.521 15.4711 101.686 15.5042C102.772 15.7356 103.563 16.6943 103.661 17.8182C103.727 18.1157 103.661 18.248 103.332 18.248Z" fill="white"/>
<path d="M162.967 35.0082H162.901V31.8677C162.901 31.7024 162.967 31.471 162.671 31.4049C161.913 31.2396 161.683 31.4049 161.683 32.1653V32.5289C161.683 33.5206 161.683 33.5206 160.695 33.6529C159.312 33.752 158.258 34.9421 158.291 36.3306C158.192 37.6529 159.18 38.843 160.497 38.9421C160.53 38.9421 160.53 38.9421 160.563 38.9421C161.255 39.0082 161.979 38.9091 162.638 38.6446C162.868 38.6115 163 38.3801 162.967 38.1818C162.967 37.1239 162.967 36.0661 162.967 35.0082ZM161.716 37.3553C161.716 37.719 161.617 37.8843 161.222 37.8843C160.398 37.9834 159.674 37.3884 159.608 36.562C159.608 36.4628 159.608 36.3306 159.608 36.2314C159.608 35.3719 160.3 34.6446 161.156 34.6446C161.222 34.6446 161.288 34.6446 161.32 34.6446C161.584 34.6446 161.716 34.7438 161.716 35.0413V37.3553Z" fill="white"/>
<path d="M134.681 32.0992C133.858 31.9008 133.001 32.0331 132.178 31.9669C131.75 31.9339 131.684 32.1322 131.684 32.4959V35.405C131.684 36.3636 131.717 37.4215 131.684 38.4132C131.684 39.0413 132.079 38.8099 132.376 38.843C132.672 38.876 133.034 38.9091 132.969 38.3802C132.936 37.9174 132.936 37.4545 132.969 36.9917C132.969 36.6612 133.067 36.562 133.397 36.595C133.924 36.6281 134.45 36.562 134.944 36.4298C135.932 36.1322 136.591 35.1405 136.492 34.1157C136.426 33.124 135.669 32.2645 134.681 32.0992ZM134.549 35.3388C134.088 35.5041 133.594 35.5372 133.133 35.5041C132.936 35.5041 132.936 35.3388 132.936 35.2066V34.3141C132.903 34.2149 132.903 34.1157 132.936 34.0165C133.067 33.719 132.606 33.1901 133.232 33.0909C134.22 32.9256 134.944 33.2893 135.142 33.9504C135.339 34.4793 135.076 35.0744 134.549 35.3388Z" fill="white"/>
<path d="M80.5451 33.6198C79.195 33.5536 78.0095 34.6115 77.9437 35.9669C77.9437 36.066 77.9437 36.1322 77.9437 36.2313C77.9107 37.8181 78.8986 38.9421 80.3475 38.9751C81.8952 39.0082 82.916 37.9503 82.9489 36.2974C82.9489 34.7437 81.961 33.6528 80.5451 33.6198ZM81.5 37.1569C81.3683 37.5867 80.9402 37.8842 80.5122 37.8842C80.0511 37.9173 79.5901 37.6528 79.4255 37.19C79.195 36.6941 79.1621 36.1322 79.3267 35.6032C79.4255 35.0412 79.9194 34.6446 80.4792 34.6446C81.039 34.6446 81.533 35.0412 81.6317 35.6032C81.6647 35.7685 81.6976 35.9338 81.7305 36.0991C81.6976 36.4627 81.6318 36.8264 81.5 37.1569Z" fill="white"/>
<path d="M109.622 33.6199C109.292 33.5868 108.963 33.6199 108.634 33.653C107.679 33.7852 107.547 33.9505 107.745 34.9753C108.14 34.81 108.601 34.7108 109.029 34.7108C109.424 34.6447 109.852 34.81 110.083 35.1406C110.214 35.405 110.28 35.6364 109.819 35.6034C109.292 35.5372 108.765 35.6034 108.271 35.8017C107.448 36.0662 106.987 36.9918 107.284 37.8182C107.448 38.3472 107.909 38.7439 108.436 38.8761C109.358 39.0744 110.313 38.9753 111.202 38.6116C111.334 38.5786 111.433 38.4463 111.433 38.3141C111.4 37.3224 111.433 36.2976 111.367 35.3058C111.268 34.3472 110.511 33.653 109.622 33.6199ZM109.424 37.9835C108.765 37.9835 108.37 37.7191 108.37 37.2563C108.37 36.7934 108.732 36.5951 109.589 36.529C110.181 36.4959 110.181 36.7934 110.115 37.2563C110.313 37.8844 109.918 37.9835 109.424 37.9835Z" fill="white"/>
<path opacity="0.75" d="M33.9171 0.0991154C30.8218 -0.13229 27.6935 0.0660576 24.5982 0.0660576C22.7541 1.65283 21.0418 3.33879 19.3953 5.09085C18.0452 6.47928 16.7939 7.99994 15.7072 9.61978C15.7072 9.61978 15.7072 9.65284 15.6743 9.65284C15.7072 9.68589 15.7402 9.71895 15.839 9.75201C16.9915 9.5206 18.1769 9.38837 19.3624 9.38837H28.7472C29.4058 9.38837 30.0644 9.42143 30.723 9.5206C32.7317 9.78507 34.5757 10.7437 35.9588 12.2313C37.6711 14.0495 38.5931 16.4628 38.5272 18.9752V29.157C38.5272 29.9173 38.4614 30.6776 38.2638 31.438C37.6711 34.1157 35.9258 36.3636 33.4891 37.5867C32.7317 37.9834 31.9085 38.1487 31.1511 38.5454C31.0852 38.5785 31.0194 38.6446 30.9535 38.6776C31.0194 38.7107 31.0523 38.7438 31.1182 38.8099C29.1095 40.0991 27.1008 41.3884 25.2567 42.876C23.2481 44.4297 21.3382 46.1487 19.527 47.9669C19.6588 47.9669 19.7575 48 19.8893 48C24.2689 48 28.6155 48.033 32.9951 48C34.9379 48 36.8478 47.6033 38.626 46.7768C44.3887 44.0661 47.6487 39.5702 47.8133 33.157C47.9779 27.2066 47.8462 21.2561 47.8462 15.2727C47.8792 7.30573 41.7872 0.694157 33.9171 0.0991154Z" fill="white"/>
<path d="M31.0854 38.7768C31.0525 38.7107 30.9867 38.6776 30.9208 38.6446C30.7232 38.5454 30.4927 38.5785 30.2951 38.5785C29.8012 38.5785 29.3731 38.6776 28.8462 38.6776C25.5533 38.6776 22.2604 38.7107 19.0004 38.6776C17.8808 38.6776 16.7612 38.5123 15.6745 38.1818C11.9206 36.9586 9.35211 33.4875 9.35211 29.5206C9.38504 25.6859 9.35211 21.8512 9.35211 18.0495C9.35211 17.6528 9.38504 17.2892 9.4509 16.9256C10.0107 13.8512 12.1182 11.2727 15.0159 10.0826C15.2464 9.98342 15.5428 9.95036 15.6745 9.6859C15.6745 9.6859 15.6745 9.65284 15.7075 9.65284C16.7941 8.03301 18.0454 6.5454 19.3955 5.12391C21.042 3.37185 22.7873 1.6859 24.5984 0.0991211C21.1737 0.0991211 17.7161 0.0991211 14.2915 0.132179C13.5671 0.165237 12.8426 0.231352 12.1511 0.4297C5.00544 1.81813 -0.0985991 8.13218 0.000188803 15.4049V32.595C0.000188803 33.3884 0.0331181 34.1487 0.131906 34.9421C1.05393 41.0578 5.53231 46.0495 11.5254 47.5371C14.1269 48.1652 16.7941 47.9669 19.4285 47.9669C19.4614 47.9338 19.4614 47.9338 19.4943 47.9008C21.2725 46.0826 23.1824 44.3636 25.224 42.8099C27.101 41.3553 29.0768 40.0661 31.0854 38.7768Z" fill="white"/>
<path opacity="0.75" d="M19.9222 31.2065C22.8859 33.5206 26.1788 33.785 29.6034 32.2644C29.8669 32.1321 30.2291 32.066 29.7681 31.6693C29.3729 31.3057 28.9778 30.909 28.6156 30.5123C28.4509 30.2809 28.1545 30.2148 27.924 30.3801C26.7715 30.8098 25.4873 30.9421 24.2689 30.6776C20.6796 29.9503 18.3087 26.5454 18.8685 22.909C19.5929 19.0743 23.1493 16.4627 26.7386 17.3883C28.1545 17.7189 28.9448 17.3883 29.7022 16.3966C29.801 16.2644 29.9327 16.1321 30.0315 16.033C28.9119 15.4049 27.6935 15.0082 26.4093 14.909C22.359 14.5123 18.5721 16.8594 17.0574 20.628C15.5426 24.3966 16.6952 28.7272 19.9222 31.2065Z" fill="white"/>
<path d="M25.5531 20.4958C23.6432 20.5289 22.1285 22.1156 22.1614 24.033C22.1614 24.0661 22.1614 24.0661 22.1614 24.0991C22.1943 26.0495 23.8079 27.6032 25.7507 27.5371C27.6935 27.5041 29.2412 25.8842 29.1754 23.9338C29.1424 21.9834 27.5289 20.4297 25.5861 20.4958H25.5531Z" fill="white"/>
</g>
<defs>
<clipPath id="clip0_39_2956">
<rect width="163" height="48" fill="white"/>
</clipPath>
</defs>
</svg>